<svg width="18" height="24" viewBox="0 0 18 24" fill="none" xmlns="http://www.w3.org/2000/svg">
<path fill-rule="evenodd" clip-rule="evenodd" d="M5.13333 15.7308C5.11112 15.731 5.0889 15.7311 5.06667 15.7311H0V0H5.06667C7.13536 3.14988e-07 9.11932 0.82869 10.5821 2.30377C12.0449 3.77884 12.8667 5.77947 12.8667 7.86555C12.8667 8.15435 12.8509 8.44151 12.8199 8.72587C11.9868 8.42626 11.1014 8.26891 10.2 8.26891H5.13333V15.7308ZM5.13333 15.7308C7.17794 15.7132 9.13504 14.8866 10.5821 13.4273C11.8424 12.1565 12.6268 10.4955 12.8199 8.72587C13.8987 9.11384 14.8901 9.74036 15.7154 10.5727C17.1782 12.0478 18 14.0484 18 16.1345C18 18.2205 17.1782 20.2212 15.7154 21.6962C14.2527 23.1713 12.2687 24 10.2 24H5.13333V15.7308Z" fill="white"/>
</svg>
