<svg width="30" height="39" viewBox="0 0 30 39" fill="none" xmlns="http://www.w3.org/2000/svg">
<path fill-rule="evenodd" clip-rule="evenodd" d="M8.41177 25.5626C8.37537 25.5629 8.33895 25.563 8.30252 25.563H0V0H8.30252C11.6924 5.11856e-07 14.9434 1.34662 17.3404 3.74362C19.7374 6.14062 21.084 9.39165 21.084 12.7815C21.084 13.2508 21.0582 13.7175 21.0074 14.1795C19.6422 13.6927 18.1914 13.437 16.7143 13.437H8.41177V25.5626ZM8.41177 25.5626C11.7622 25.534 14.9692 24.1906 17.3404 21.8194C19.4056 19.7543 20.691 17.0552 21.0074 14.1795C22.7752 14.81 24.3997 15.8281 25.7522 17.1806C28.1492 19.5776 29.4958 22.8286 29.4958 26.2185C29.4958 29.6084 28.1492 32.8594 25.7522 35.2564C23.3552 37.6534 20.1042 39 16.7143 39H8.41177V25.5626Z" fill="#00511B"/>
<path fill-rule="evenodd" clip-rule="evenodd" d="M8.41177 25.5626C8.37537 25.5629 8.33895 25.563 8.30252 25.563H0V0H8.30252C11.6924 5.11856e-07 14.9434 1.34662 17.3404 3.74362C19.7374 6.14062 21.084 9.39165 21.084 12.7815C21.084 13.2508 21.0582 13.7175 21.0074 14.1795C19.6422 13.6927 18.1914 13.437 16.7143 13.437H8.41177V25.5626ZM8.41177 25.5626C11.7622 25.534 14.9692 24.1906 17.3404 21.8194C19.4056 19.7543 20.691 17.0552 21.0074 14.1795C22.7752 14.81 24.3997 15.8281 25.7522 17.1806C28.1492 19.5776 29.4958 22.8286 29.4958 26.2185C29.4958 29.6084 28.1492 32.8594 25.7522 35.2564C23.3552 37.6534 20.1042 39 16.7143 39H8.41177V25.5626Z" fill="#00511B"/>
</svg>
